<svg xmlns="http://www.w3.org/2000/svg" xmlns:xlink="http://www.w3.org/1999/xlink" viewBox="0,0,256,256" width="30px" height="30px" fill-rule="nonzero"><g fill="#ffffff" fill-rule="nonzero" stroke="none" stroke-width="1" stroke-linecap="butt" stroke-linejoin="miter" stroke-miterlimit="10" stroke-dasharray="" stroke-dashoffset="0" font-family="none" font-weight="none" font-size="none" text-anchor="none" style="mix-blend-mode: normal"><g transform="scale(10.66667,10.66667)"><path d="M21.636,17.869c-0.016,-0.016 -1.581,-1.635 -1.581,-3.952v-2.9c0,-3.996 -2.957,-7.309 -6.806,-7.91v-0.857c0.001,-0.69 -0.559,-1.25 -1.249,-1.25c-0.69,0 -1.25,0.56 -1.25,1.25v0.857c-3.849,0.601 -6.806,3.914 -6.806,7.91v2.9c0,2.317 -1.565,3.936 -1.576,3.947c-0.359,0.357 -0.467,0.895 -0.274,1.363c0.194,0.468 0.65,0.773 1.156,0.773h5.75c0,1.657 1.343,3 3,3c1.657,0 3,-1.343 3,-3h5.75c0.503,0 0.956,-0.305 1.15,-0.77c0.195,-0.464 0.089,-1.002 -0.264,-1.361z"></path></g></g></svg>